<?xml version="1.0" encoding="utf-8"?>
<!-- Generator: Adobe Illustrator 24.2.0, SVG Export Plug-In . SVG Version: 6.00 Build 0)  -->
<svg version="1.1" id="Layer_1" xmlns="http://www.w3.org/2000/svg" xmlns:xlink="http://www.w3.org/1999/xlink" x="0px" y="0px"
	 viewBox="0 0 603.9 135.1" style="enable-background:new 0 0 603.9 135.1;" xml:space="preserve">
<style type="text/css">
	.st0{fill:#274185;}
	.st1{fill:none;}
</style>
<path class="st0" d="M543.2,56.1V56c0-1,2-9,11.7-9c9,0,11.6,6.8,11.6,9v0.2H543.2z M565.4,68.6c-1.7,3.5-5.2,5.3-10.2,5.3
	c-8.4,0-12-5.9-12-9.7V64h35.9v-1.2c0-15.2-7.8-24-24-24c-14.8,0-24.6,6.5-24.6,21.7s9.9,21.7,24.6,21.7c11.2,0,19.7-4,23.3-13.6
	H565.4z M505.7,40.2H498v8.9h7.7v20.4c0,7.3,1.1,12,12.7,12c2.7,0,7.3-0.5,9.6-0.8v-8.9c-2,0.2-3.8,0.3-6,0.3
	c-3.2,0-4.1-1.1-4.1-4.2V49.1h9.9v-8.9h-9.9V27.7h-12.2V40.2z M462.1,52.6c1.7-5.6,4.5-6,9.7-6c7.1,0,9.6,1.6,9.6,4.8
	c0,3.2-1.3,3.9-5,4.2l-13,1c-7.5,0.5-15.5,2.6-15.5,12.5c0,9.4,6.8,13.1,16.6,13.1c5.5,0,13.3-1.3,17.5-5.8c0.1,1.4,0.4,2.9,0.8,4.3
	H495c-0.8-2-1.4-4.6-1.4-8.1V52.4c0-7.5-3.8-13.7-21.3-13.7c-10,0-20.6,1.4-22.1,13.9H462.1z M481.8,64.2c0,6.8-6.9,10.1-13.1,10.1
	c-4.6,0-7.7-2-7.7-5.7c0-3.6,2.2-4.9,6.5-5.3l7.1-0.7c2.4-0.2,4.9-0.5,7.2-1.7V64.2z M406.6,65.5l-14.8-38.7H372v53.8h13.1V37.5h0.1
	L401,80.6h11.3L428,37.5h0.1v43.1h13.1V26.8h-19.8L406.6,65.5z M335.3,80.6h12.2V63.2c0-7.8,4-12.4,12.3-12.4c2.3,0,4.5,0.5,6.8,1.2
	V39.5c-1.4-0.3-3.1-0.4-4.5-0.4c-7,0-10.4,2.8-14.9,9h-0.1v-7.9h-11.8V80.6z M293.1,56.1V56c0-1,2-9,11.7-9c9,0,11.6,6.8,11.6,9v0.2
	H293.1z M315.2,68.6c-1.7,3.5-5.2,5.3-10.2,5.3c-8.4,0-12-5.9-12-9.7V64H329v-1.2c0-15.2-7.8-24-24-24c-14.8,0-24.6,6.5-24.6,21.7
	s9.9,21.7,24.6,21.7c11.2,0,19.7-4,23.3-13.6H315.2z M256.8,80.6h12.2V49.1h9.8v-8.9h-9.8v-2.5c0-3.8,1.6-4.1,3.8-4.1
	c2.1,0,4.1,0.1,6.2,0.2v-8.3c-3-0.1-6.1-0.2-7.7-0.2c-11.4,0-14.5,2-14.5,12.9v2h-7.7v8.9h7.7V80.6z M201.7,68.1
	c0.6,9.6,7.8,14,21.9,14c10.7,0,23-1.7,23-13.6c0-7-4-11-16.5-12.4l-8.5-1c-5.3-0.6-6.2-1.9-6.2-3.8c0-4,4.8-4.3,8-4.3
	c3.6,0,7.6,1.2,8.3,5.4h13.5c-0.8-7.5-4.9-13.6-22.1-13.6c-10.2,0-20.4,2.6-20.4,13.6c0,7.7,4.5,10.3,12.2,11.5l11.1,1.7
	c5.9,0.9,7,1.8,7,4.1c0,2.9-3.3,4.4-8.9,4.4c-6.3,0-8.6-2.3-9.1-5.7H201.7z M183.2,80.6h12.2V53.7c0-11.9-9.7-14.5-16-14.5
	c-7.2,0-13,3.5-15.3,6.9h-0.1v-5.9h-11.8v40.4h12.2V61.1c0-8.6,4.8-11.7,10.5-11.7c5.5,0,8.2,2.7,8.2,8.3V80.6z M112.6,52.6
	c1.7-5.6,4.5-6,9.7-6c7.1,0,9.6,1.6,9.6,4.8c0,3.2-1.3,3.9-5,4.2l-13,1c-7.5,0.5-15.5,2.6-15.5,12.5c0,9.4,6.8,13.1,16.6,13.1
	c5.5,0,13.3-1.3,17.5-5.8c0.1,1.4,0.4,2.9,0.8,4.3h12.2c-0.8-2-1.4-4.6-1.4-8.1V52.4c0-7.5-3.8-13.7-21.3-13.7
	c-10,0-20.6,1.4-22.1,13.9H112.6z M132.3,64.2c0,6.8-6.9,10.1-13.1,10.1c-4.6,0-7.7-2-7.7-5.7c0-3.6,2.2-4.9,6.5-5.3l7.1-0.7
	c2.4-0.2,4.9-0.5,7.2-1.7V64.2z M64.5,80.6h12.2V63.2c0-7.8,4-12.4,12.3-12.4c2.3,0,4.5,0.5,6.8,1.2V39.5c-1.4-0.3-3.1-0.4-4.5-0.4
	c-7,0-10.4,2.8-14.9,9h-0.1v-7.9H64.5V80.6z M33.6,80.6h13.5V37h18.5V26.8H15.1V37h18.5V80.6z"/>
<path class="st0" d="M563.7,108.6c-0.1,4.7,3.6,6.8,7.5,6.8c4.8,0,7.4-2.6,7.4-6.1c0-4.3-4-5.2-5.2-5.6c-4.4-1.2-5.3-1.4-5.3-2.9
	c0-1.6,1.4-2.2,2.7-2.2c1.9,0,3.4,0.6,3.5,2.9h3.8c0-4.4-3.4-6.2-7.1-6.2c-3.2,0-6.6,1.9-6.6,5.8c0,3.6,2.6,4.7,5.3,5.4
	c2.6,0.8,5.3,1.1,5.3,3.2c0,2-2.1,2.4-3.4,2.4c-2.1,0-3.9-1-3.9-3.5H563.7z M553.6,115h3.9V99.4h5.3v-3.5h-14.5v3.5h5.3V115z
	 M531.3,115h3.6v-12.8h0l7.4,12.8h3.9V95.8h-3.6v12.8h0l-7.4-12.8h-3.9V115z M515.3,115h13.4v-3.5h-9.5v-4.7h8.6v-3.3h-8.6v-4.1h9.3
	v-3.5h-13.2V115z M492.8,115h3.6v-13.4h0l4.3,13.4h3l4.3-13.6h0V115h3.6V95.8h-5.5l-3.9,13.2h0l-4.1-13.2h-5.5V115z M480.9,115h3.9
	v-7.3l6.6-11.8H487l-4.1,7.6l-4.1-7.6h-4.4l6.5,11.7V115z M466.1,100.6L466.1,100.6l2.3,7h-4.6L466.1,100.6z M457.4,115h3.9l1.4-4.3
	h6.6l1.3,4.3h4l-6.6-19.1h-4L457.4,115z M446.7,99.1h3c1.8,0,3.4,0.4,3.4,2.9c0,2.4-1.6,2.9-3.4,2.9h-3V99.1z M442.8,115h3.9v-6.9
	h4.1c4.4,0,6.1-3,6.1-6.1c0-3.1-1.7-6.1-6.1-6.1h-8V115z M421.2,115h12.5v-3.5h-8.6V95.8h-3.9V115z M411,100.6L411,100.6l2.3,7h-4.6
	L411,100.6z M402.4,115h3.9l1.4-4.3h6.6l1.3,4.3h4l-6.6-19.1h-4L402.4,115z M390.7,99.1h3.6c1.4,0,2.7,0.4,2.7,2.2
	c0,1.6-1,2.3-2.4,2.3h-3.9V99.1z M386.8,115h8.6c3.2,0,6.2-1.7,6.2-5.5c0-2.4-1.1-4.2-3.2-4.9c1.5-0.8,2.4-2.1,2.4-4
	c0-3.6-2.3-4.7-5.6-4.7h-8.3V115z M390.7,106.5h4.2c1.7,0,2.8,0.8,2.8,2.7c0,2-1.3,2.5-2.9,2.5h-4.2V106.5z M370.7,105.5
	c0-3.4,1.3-6.6,4.8-6.6c3.5,0,4.8,3.2,4.8,6.6c0,3.2-1.3,6.4-4.8,6.4C372,111.9,370.7,108.7,370.7,105.5 M366.8,105.5
	c0,5.5,3.2,9.9,8.7,9.9c5.5,0,8.7-4.4,8.7-9.9c0-5.7-3.2-10.1-8.7-10.1C370,95.4,366.8,99.8,366.8,105.5 M352.9,115h12.5v-3.5h-8.6
	V95.8h-3.9V115z M347.3,115h2.5v-10.3h-7.4v3.1h3.9c-0.2,2.7-1.7,4.1-4.2,4.1c-3.5,0-4.8-3.2-4.8-6.4c0-3.4,1.3-6.6,4.8-6.6
	c1.8,0,3.3,1.1,3.7,3.2h3.7c-0.4-4.3-3.8-6.8-7.5-6.8c-5.5,0-8.7,4.4-8.7,10.1c0,5.5,3.2,9.9,8.7,9.9c1.7,0,3.5-0.7,4.9-2.6
	L347.3,115z"/>
<rect x="15.1" y="25.3" class="st1" width="564" height="90.2"/>
</svg>
